<svg width="100" height="78" viewBox="0 0 67 64" fill="none" xmlns="http://www.w3.org/2000/svg">
<path d="M12.8125 39.9023V49.8331L33.7138 61.9995L54.5631 49.8331V39.9023" stroke="#FF7A00" stroke-width="3" stroke-linejoin="round"/>
<path d="M33.7109 60.284V40.4746" stroke="#FF7A00" stroke-width="3" stroke-linejoin="round"/>
<path d="M55.6079 27.7891L33.7188 40.5794L43.4935 46.2987L65.4346 33.5083L55.6079 27.7891Z" stroke="#FF7A00" stroke-width="3" stroke-linejoin="round"/>
<path d="M11.7747 27.7891L33.7159 40.5794L23.8892 46.2987L2 33.5083L11.7747 27.7891Z" stroke="#FF7A00" stroke-width="3" stroke-linejoin="round"/>
<path d="M23.8892 9.2793L2 22.0696L11.7747 27.7889L26.1769 19.366" stroke="#FF7A00" stroke-width="3" stroke-linejoin="round"/>
<path d="M43.4903 9.2793L65.4314 22.0696L55.6047 27.7889L40.8906 19.158" stroke="#FF7A00" stroke-width="3" stroke-linejoin="round"/>
<path d="M36.7219 33.6119V14.5824H40.8814L37.2939 8.29118L33.7063 2L30.1188 8.29118L26.5312 14.5824H30.6907V33.6119" stroke="#FF7A00" stroke-width="3" stroke-linejoin="round"/>
</svg>
