<svg width="120" height="120" viewBox="0 0 120 120" fill="none" xmlns="http://www.w3.org/2000/svg">
<path d="M118.204 60.0596C118.204 92.1234 92.122 118.205 60.0582 118.205C27.8747 118.205 1.79297 92.1234 1.79297 60.0596C1.79297 27.8762 27.8747 1.79443 60.0582 1.79443C92.122 1.79443 118.204 27.8762 118.204 60.0596Z" stroke="#3ECA3B" stroke-width="3" stroke-miterlimit="10" stroke-linejoin="round"/>
<path d="M60.055 106.241C34.5715 106.241 13.7539 85.543 13.7539 59.9398C13.7539 34.4562 34.4518 13.6387 60.055 13.6387C85.6582 13.6387 106.356 34.3366 106.356 59.9398C106.236 85.543 85.5386 106.241 60.055 106.241Z" stroke="#3ECA3B" stroke-width="3" stroke-miterlimit="10" stroke-linejoin="round"/>
<path d="M90.9286 45.3434L79.5627 33.9775L50.2506 63.17L41.3972 54.4362L30.0312 65.8021L50.131 86.141L90.9286 45.3434Z" stroke="#3ECA3B" stroke-width="3" stroke-miterlimit="10"/>
</svg>