<svg width="24" height="25" viewBox="0 0 24 25" fill="none" xmlns="http://www.w3.org/2000/svg">
<path d="M8 20.5C8 21.0523 7.55228 21.5 7 21.5C6.44772 21.5 6 21.0523 6 20.5C6 19.9477 6.44772 19.5 7 19.5C7.55228 19.5 8 19.9477 8 20.5ZM18 20.5C18 21.0523 17.5523 21.5 17 21.5C16.4477 21.5 16 21.0523 16 20.5C16 19.9477 16.4477 19.5 17 19.5C17.5523 19.5 18 19.9477 18 20.5Z" stroke="white" stroke-width="2"/>
<path d="M1 3.5H3.5L4.5 5.5M4.5 5.5H19.8277C19.9045 5.5 19.9526 5.58295 19.9145 5.64961L16 12.5H8L7.5 11.5M4.5 5.5L7.5 11.5M19 16.5H6.61803C5.87465 16.5 5.39116 15.7177 5.72361 15.0528L7.5 11.5" stroke="white" stroke-width="2"/>
</svg>
